<svg xmlns="http://www.w3.org/2000/svg" width="520" height="336" role="img" aria-label="Language composition">
<style>
  .card { fill: #ffffff; stroke: #d0d7de; }
  .title { font: 600 18px -apple-system,BlinkMacSystemFont,"Segoe UI",sans-serif; fill: #1f2328; }
  .subtitle,.value { font: 12px -apple-system,BlinkMacSystemFont,"Segoe UI",sans-serif; fill: #656d76; }
  .label { font: 600 13px -apple-system,BlinkMacSystemFont,"Segoe UI",sans-serif; fill: #1f2328; }
  @media (prefers-color-scheme: dark) {
    .card { fill: #0d1117; stroke: #30363d; }
    .title,.label { fill: #e6edf3; }
    .subtitle,.value { fill: #8b949e; }
  }
</style>
<rect class="card" x="0.5" y="0.5" width="519" height="335" rx="10"/>
<text x="24" y="34" class="title">Repository language composition</text>
<text x="24" y="56" class="subtitle">Public + private aggregate · forks and archives excluded</text>
<circle cx="28" cy="85" r="6" fill="#3572A5"/><text x="44" y="90" class="label">Python</text><text x="490" y="90" text-anchor="end" class="value">61.1%</text><circle cx="28" cy="113" r="6" fill="#3178c6"/><text x="44" y="118" class="label">TypeScript</text><text x="490" y="118" text-anchor="end" class="value">15.8%</text><circle cx="28" cy="141" r="6" fill="#8b949e"/><text x="44" y="146" class="label">PowerShell</text><text x="490" y="146" text-anchor="end" class="value">5.5%</text><circle cx="28" cy="169" r="6" fill="#f1e05a"/><text x="44" y="174" class="label">JavaScript</text><text x="490" y="174" text-anchor="end" class="value">5.0%</text><circle cx="28" cy="197" r="6" fill="#8b949e"/><text x="44" y="202" class="label">TeX</text><text x="490" y="202" text-anchor="end" class="value">2.9%</text><circle cx="28" cy="225" r="6" fill="#8b949e"/><text x="44" y="230" class="label">Rust</text><text x="490" y="230" text-anchor="end" class="value">2.6%</text><circle cx="28" cy="253" r="6" fill="#663399"/><text x="44" y="258" class="label">CSS</text><text x="490" y="258" text-anchor="end" class="value">2.4%</text><circle cx="28" cy="281" r="6" fill="#e34c26"/><text x="44" y="286" class="label">HTML</text><text x="490" y="286" text-anchor="end" class="value">2.1%</text>
</svg>